<svg width="83" height="53" viewBox="0 0 83 53" fill="none" xmlns="http://www.w3.org/2000/svg">
<path d="M5.696 46.024L4.87472 46.5946L4.87879 46.6003L5.696 46.024ZM5.696 7.72L4.87877 7.14364L4.87474 7.14944L5.696 7.72ZM35.432 7.72L34.6107 8.29057L34.6148 8.29634L35.432 7.72ZM35.432 46.024L34.6148 45.4476L34.6107 45.4534L35.432 46.024ZM27.296 40.984L26.4289 40.4859L26.4249 40.4929L26.421 40.4999L27.296 40.984ZM27.296 12.76L26.421 13.2441L26.4249 13.2511L26.4289 13.2581L27.296 12.76ZM13.832 12.76L12.9649 12.2619L12.9609 12.2689L12.957 12.2759L13.832 12.76ZM13.832 40.984L12.957 41.4681L12.9609 41.4751L12.9649 41.4821L13.832 40.984ZM17.072 30.112L16.3392 30.7924L16.3518 30.806L16.3649 30.8191L17.072 30.112ZM17.072 23.632L16.3649 22.9249L16.3518 22.938L16.3392 22.9515L17.072 23.632ZM24.056 23.632L23.3232 24.3125L23.3358 24.326L23.3489 24.3391L24.056 23.632ZM24.056 30.112L23.3489 29.4049L23.3358 29.418L23.3232 29.4315L24.056 30.112ZM20.6 51.864C14.1297 51.864 9.50224 49.6858 6.51321 45.4477L4.87879 46.6003C8.32176 51.4822 13.6304 53.864 20.6 53.864V51.864ZM6.51726 45.4534C3.5091 41.1235 1.944 34.9685 1.944 26.872H-0.0559999C-0.0559999 35.1915 1.5469 41.8045 4.87474 46.5946L6.51726 45.4534ZM1.944 26.872C1.944 18.7755 3.5091 12.6205 6.51726 8.29056L4.87474 7.14944C1.5469 11.9395 -0.0559999 18.5525 -0.0559999 26.872H1.944ZM6.51321 8.29634C9.50224 4.05817 14.1297 1.88 20.6 1.88V-0.120003C13.6303 -0.120003 8.32176 2.26183 4.87879 7.14365L6.51321 8.29634ZM20.6 1.88C27.0707 1.88 31.6703 4.05805 34.6107 8.29056L36.2533 7.14944C32.8577 2.26195 27.5693 -0.120003 20.6 -0.120003V1.88ZM34.6148 8.29634C37.6678 12.6253 39.256 18.7779 39.256 26.872H41.256C41.256 18.5501 39.6282 11.9347 36.2492 7.14365L34.6148 8.29634ZM39.256 26.872C39.256 34.9661 37.6678 41.1187 34.6148 45.4477L36.2492 46.6003C39.6282 41.8093 41.256 35.1939 41.256 26.872H39.256ZM34.6107 45.4534C31.6703 49.686 27.0707 51.864 20.6 51.864V53.864C27.5693 53.864 32.8577 51.482 36.2533 46.5946L34.6107 45.4534ZM20.6 45.368C24.0741 45.368 26.7011 44.1253 28.171 41.4681L26.421 40.4999C25.3949 42.3547 23.5579 43.368 20.6 43.368V45.368ZM28.1631 41.4821C29.5814 39.0132 30.24 35.671 30.24 31.552H28.24C28.24 35.497 27.6026 38.4428 26.4289 40.4859L28.1631 41.4821ZM30.24 31.552V22.192H28.24V31.552H30.24ZM30.24 22.192C30.24 18.073 29.5814 14.7308 28.1631 12.2619L26.4289 13.2581C27.6026 15.3012 28.24 18.247 28.24 22.192H30.24ZM28.171 12.2759C26.7011 9.61869 24.0741 8.376 20.6 8.376V10.376C23.5579 10.376 25.3949 11.3893 26.421 13.2441L28.171 12.2759ZM20.6 8.376C17.1249 8.376 14.4836 9.61823 12.9649 12.2619L14.6991 13.2581C15.7724 11.3898 17.6431 10.376 20.6 10.376V8.376ZM12.957 12.2759C11.5934 14.7409 10.96 18.0773 10.96 22.192H12.96C12.96 18.2427 13.5746 15.2911 14.707 13.2441L12.957 12.2759ZM10.96 22.192V31.552H12.96V22.192H10.96ZM10.96 31.552C10.96 35.6667 11.5934 39.0031 12.957 41.4681L14.707 40.4999C13.5746 38.4529 12.96 35.5013 12.96 31.552H10.96ZM12.9649 41.4821C14.4836 44.1258 17.1249 45.368 20.6 45.368V43.368C17.6431 43.368 15.7724 42.3542 14.6991 40.4859L12.9649 41.4821ZM20.6 30.12C18.9977 30.12 18.1632 29.789 17.7791 29.4049L16.3649 30.8191C17.3248 31.779 18.8423 32.12 20.6 32.12V30.12ZM17.8048 29.4315C17.3612 28.9538 17.136 28.3846 17.136 27.664H15.136C15.136 28.8634 15.5348 29.9262 16.3392 30.7924L17.8048 29.4315ZM17.136 27.664V26.08H15.136V27.664H17.136ZM17.136 26.08C17.136 25.3594 17.3612 24.7902 17.8048 24.3125L16.3392 22.9515C15.5348 23.8178 15.136 24.8806 15.136 26.08H17.136ZM17.7791 24.3391C18.1632 23.955 18.9977 23.624 20.6 23.624V21.624C18.8423 21.624 17.3248 21.965 16.3649 22.9249L17.7791 24.3391ZM20.6 23.624C22.2138 23.624 22.9958 23.9598 23.3232 24.3125L24.7888 22.9515C23.8682 21.9601 22.3462 21.624 20.6 21.624V23.624ZM23.3489 24.3391C23.8312 24.8214 24.064 25.3822 24.064 26.08H26.064C26.064 24.8578 25.6248 23.7866 24.7631 22.9249L23.3489 24.3391ZM24.064 26.08V27.664H26.064V26.08H24.064ZM24.064 27.664C24.064 28.3618 23.8312 28.9226 23.3489 29.4049L24.7631 30.8191C25.6248 29.9574 26.064 28.8862 26.064 27.664H24.064ZM23.3232 29.4315C22.9958 29.7841 22.2138 30.12 20.6 30.12V32.12C22.3462 32.12 23.8682 31.7838 24.7888 30.7924L23.3232 29.4315ZM82.1319 52V53H83.1319V52H82.1319ZM45.9879 52H44.9879V53H45.9879V52ZM45.9879 42.136L45.3484 41.3672L44.9879 41.6671V42.136H45.9879ZM61.8279 28.96L62.4674 29.7288L62.4736 29.7236L62.4798 29.7183L61.8279 28.96ZM67.7319 22.84L66.9105 22.2696V22.2696L67.7319 22.84ZM67.6599 11.896L66.9973 12.645L67.0055 12.6523L67.0139 12.6594L67.6599 11.896ZM57.0759 12.328L57.8078 13.0094L57.0759 12.328ZM54.3399 17.296L53.9833 18.2303L55.0121 18.6229L55.3041 17.5612L54.3399 17.296ZM44.9079 13.696L43.9592 13.3798L43.6562 14.2886L44.5513 14.6303L44.9079 13.696ZM47.2839 8.8L48.12 9.34871L48.1275 9.33687L47.2839 8.8ZM51.0999 4.696L50.5117 3.88726L50.5058 3.89159L50.4999 3.896L51.0999 4.696ZM56.5719 1.96L56.8815 2.91087L56.8914 2.90763L56.9012 2.9042L56.5719 1.96ZM71.0439 2.032L70.7089 2.97421L71.0439 2.032ZM76.5159 5.2L77.1862 4.4579L76.5159 5.2ZM79.8999 10.024L78.9747 10.4036L78.9782 10.4121L79.8999 10.024ZM79.9719 21.832L79.0451 21.4563L79.0425 21.4629L79.0399 21.4696L79.9719 21.832ZM77.0919 26.728L76.3158 26.0974L76.3097 26.1048L76.3038 26.1124L77.0919 26.728ZM72.7719 31.192L72.1211 30.4327L72.1156 30.4374L72.1103 30.4422L72.7719 31.192ZM67.5159 35.512L66.9062 34.7194L66.9036 34.7214L67.5159 35.512ZM57.9399 42.928L57.3276 42.1374L55.0154 43.928H57.9399V42.928ZM82.1319 42.928H83.1319V41.928H82.1319V42.928ZM82.1319 51H45.9879V53H82.1319V51ZM46.9879 52V42.136H44.9879V52H46.9879ZM46.6274 42.9048L62.4674 29.7288L61.1884 28.1912L45.3484 41.3672L46.6274 42.9048ZM62.4798 29.7183C65.2413 27.3444 67.2826 25.2401 68.5532 23.4104L66.9105 22.2696C65.7812 23.8959 63.8865 25.8716 61.176 28.2017L62.4798 29.7183ZM68.5532 23.4104C69.8579 21.5317 70.5319 19.5114 70.5319 17.368H68.5319C68.5319 19.0646 68.0059 20.6923 66.9105 22.2696L68.5532 23.4104ZM70.5319 17.368V16.648H68.5319V17.368H70.5319ZM70.5319 16.648C70.5319 14.334 69.8403 12.431 68.3058 11.1326L67.0139 12.6594C67.9754 13.473 68.5319 14.738 68.5319 16.648H70.5319ZM68.3224 11.147C66.8468 9.84158 64.9085 9.24 62.6199 9.24V11.24C64.5552 11.24 65.977 11.7424 66.9973 12.645L68.3224 11.147ZM62.6199 9.24C60.0197 9.24 57.8761 10.0009 56.344 11.6466L57.8078 13.0094C58.8676 11.8711 60.4201 11.24 62.6199 11.24V9.24ZM56.344 11.6466C54.9329 13.1622 53.9443 14.9629 53.3757 17.0308L55.3041 17.5612C55.7914 15.7891 56.6268 14.2778 57.8078 13.0094L56.344 11.6466ZM54.6965 16.3617L45.2645 12.7617L44.5513 14.6303L53.9833 18.2303L54.6965 16.3617ZM45.8566 14.0122C46.405 12.367 47.1589 10.813 48.1199 9.34865L46.4478 8.25134C45.3928 9.85899 44.5628 11.569 43.9592 13.3798L45.8566 14.0122ZM48.1275 9.33687C49.0694 7.85687 50.2581 6.57736 51.6999 5.496L50.4999 3.896C48.8697 5.11864 47.5144 6.57513 46.4402 8.26312L48.1275 9.33687ZM51.688 5.50474C53.1786 4.42072 54.9065 3.55388 56.8815 2.91087L56.2623 1.00912C54.1092 1.71011 52.1892 2.66728 50.5117 3.88726L51.688 5.50474ZM56.9012 2.9042C58.8382 2.2285 61.0992 1.88 63.6999 1.88V-0.120003C60.9245 -0.120003 58.4335 0.25149 56.2425 1.0158L56.9012 2.9042ZM63.6999 1.88C66.3432 1.88 68.675 2.25105 70.7089 2.97421L71.3789 1.08978C69.0928 0.276951 66.5285 -0.120003 63.6999 -0.120003V1.88ZM70.7089 2.97421C72.7627 3.70445 74.4681 4.69791 75.8456 5.9421L77.1862 4.4579C75.5877 3.01409 73.6451 1.89555 71.3789 1.08978L70.7089 2.97421ZM75.8456 5.9421C77.2215 7.18489 78.2629 8.66864 78.9747 10.4036L80.8251 9.64444C80.0008 7.63536 78.7862 5.9031 77.1862 4.4579L75.8456 5.9421ZM78.9782 10.4121C79.69 12.1024 80.0519 13.961 80.0519 16H82.0519C82.0519 13.719 81.6458 11.5936 80.8215 9.63594L78.9782 10.4121ZM80.0519 16C80.0519 17.9964 79.712 19.8113 79.0451 21.4563L80.8986 22.2077C81.6717 20.3007 82.0519 18.2276 82.0519 16H80.0519ZM79.0399 21.4696C78.408 23.0943 77.5026 24.6367 76.3158 26.0974L77.868 27.3586C79.1772 25.7473 80.1917 24.0257 80.9039 22.1944L79.0399 21.4696ZM76.3038 26.1124C75.1498 27.5896 73.7573 29.0303 72.1211 30.4327L73.4227 31.9513C75.1464 30.4737 76.634 28.9384 77.8799 27.3436L76.3038 26.1124ZM72.1103 30.4422C70.4964 31.8661 68.7619 33.2919 66.9062 34.7194L68.1256 36.3046C70.0139 34.8521 71.7833 33.3979 73.4335 31.9418L72.1103 30.4422ZM66.9036 34.7214L57.3276 42.1374L58.5522 43.7186L68.1282 36.3026L66.9036 34.7214ZM57.9399 43.928H82.1319V41.928H57.9399V43.928ZM81.1319 42.928V52H83.1319V42.928H81.1319Z" fill="#D6D6D6"/>
</svg>
