<svg width="83" height="53" viewBox="0 0 83 53" fill="none" xmlns="http://www.w3.org/2000/svg">
<path d="M5.696 46.024L4.87472 46.5946L4.87879 46.6003L5.696 46.024ZM5.696 7.72L4.87877 7.14364L4.87474 7.14944L5.696 7.72ZM35.432 7.72L34.6107 8.29057L34.6148 8.29634L35.432 7.72ZM35.432 46.024L34.6148 45.4476L34.6107 45.4534L35.432 46.024ZM27.296 40.984L26.4289 40.4859L26.4249 40.4929L26.421 40.4999L27.296 40.984ZM27.296 12.76L26.421 13.2441L26.4249 13.2511L26.4289 13.2581L27.296 12.76ZM13.832 12.76L12.9649 12.2619L12.9609 12.2689L12.957 12.2759L13.832 12.76ZM13.832 40.984L12.957 41.4681L12.9609 41.4751L12.9649 41.4821L13.832 40.984ZM17.072 30.112L16.3392 30.7924L16.3518 30.806L16.3649 30.8191L17.072 30.112ZM17.072 23.632L16.3649 22.9249L16.3518 22.938L16.3392 22.9515L17.072 23.632ZM24.056 23.632L23.3232 24.3125L23.3358 24.326L23.3489 24.3391L24.056 23.632ZM24.056 30.112L23.3489 29.4049L23.3358 29.418L23.3232 29.4315L24.056 30.112ZM20.6 51.864C14.1297 51.864 9.50224 49.6858 6.51321 45.4477L4.87879 46.6003C8.32176 51.4822 13.6304 53.864 20.6 53.864V51.864ZM6.51726 45.4534C3.5091 41.1235 1.944 34.9685 1.944 26.872H-0.0559999C-0.0559999 35.1915 1.5469 41.8045 4.87474 46.5946L6.51726 45.4534ZM1.944 26.872C1.944 18.7755 3.5091 12.6205 6.51726 8.29056L4.87474 7.14944C1.5469 11.9395 -0.0559999 18.5525 -0.0559999 26.872H1.944ZM6.51321 8.29634C9.50224 4.05817 14.1297 1.88 20.6 1.88V-0.120003C13.6303 -0.120003 8.32176 2.26183 4.87879 7.14365L6.51321 8.29634ZM20.6 1.88C27.0707 1.88 31.6703 4.05805 34.6107 8.29056L36.2533 7.14944C32.8577 2.26195 27.5693 -0.120003 20.6 -0.120003V1.88ZM34.6148 8.29634C37.6678 12.6253 39.256 18.7779 39.256 26.872H41.256C41.256 18.5501 39.6282 11.9347 36.2492 7.14365L34.6148 8.29634ZM39.256 26.872C39.256 34.9661 37.6678 41.1187 34.6148 45.4477L36.2492 46.6003C39.6282 41.8093 41.256 35.1939 41.256 26.872H39.256ZM34.6107 45.4534C31.6703 49.686 27.0707 51.864 20.6 51.864V53.864C27.5693 53.864 32.8577 51.482 36.2533 46.5946L34.6107 45.4534ZM20.6 45.368C24.0741 45.368 26.7011 44.1253 28.171 41.4681L26.421 40.4999C25.3949 42.3547 23.5579 43.368 20.6 43.368V45.368ZM28.1631 41.4821C29.5814 39.0132 30.24 35.671 30.24 31.552H28.24C28.24 35.497 27.6026 38.4428 26.4289 40.4859L28.1631 41.4821ZM30.24 31.552V22.192H28.24V31.552H30.24ZM30.24 22.192C30.24 18.073 29.5814 14.7308 28.1631 12.2619L26.4289 13.2581C27.6026 15.3012 28.24 18.247 28.24 22.192H30.24ZM28.171 12.2759C26.7011 9.61869 24.0741 8.376 20.6 8.376V10.376C23.5579 10.376 25.3949 11.3893 26.421 13.2441L28.171 12.2759ZM20.6 8.376C17.1249 8.376 14.4836 9.61823 12.9649 12.2619L14.6991 13.2581C15.7724 11.3898 17.6431 10.376 20.6 10.376V8.376ZM12.957 12.2759C11.5934 14.7409 10.96 18.0773 10.96 22.192H12.96C12.96 18.2427 13.5746 15.2911 14.707 13.2441L12.957 12.2759ZM10.96 22.192V31.552H12.96V22.192H10.96ZM10.96 31.552C10.96 35.6667 11.5934 39.0031 12.957 41.4681L14.707 40.4999C13.5746 38.4529 12.96 35.5013 12.96 31.552H10.96ZM12.9649 41.4821C14.4836 44.1258 17.1249 45.368 20.6 45.368V43.368C17.6431 43.368 15.7724 42.3542 14.6991 40.4859L12.9649 41.4821ZM20.6 30.12C18.9977 30.12 18.1632 29.789 17.7791 29.4049L16.3649 30.8191C17.3248 31.779 18.8423 32.12 20.6 32.12V30.12ZM17.8048 29.4315C17.3612 28.9538 17.136 28.3846 17.136 27.664H15.136C15.136 28.8634 15.5348 29.9262 16.3392 30.7924L17.8048 29.4315ZM17.136 27.664V26.08H15.136V27.664H17.136ZM17.136 26.08C17.136 25.3594 17.3612 24.7902 17.8048 24.3125L16.3392 22.9515C15.5348 23.8178 15.136 24.8806 15.136 26.08H17.136ZM17.7791 24.3391C18.1632 23.955 18.9977 23.624 20.6 23.624V21.624C18.8423 21.624 17.3248 21.965 16.3649 22.9249L17.7791 24.3391ZM20.6 23.624C22.2138 23.624 22.9958 23.9598 23.3232 24.3125L24.7888 22.9515C23.8682 21.9601 22.3462 21.624 20.6 21.624V23.624ZM23.3489 24.3391C23.8312 24.8214 24.064 25.3822 24.064 26.08H26.064C26.064 24.8578 25.6248 23.7866 24.7631 22.9249L23.3489 24.3391ZM24.064 26.08V27.664H26.064V26.08H24.064ZM24.064 27.664C24.064 28.3618 23.8312 28.9226 23.3489 29.4049L24.7631 30.8191C25.6248 29.9574 26.064 28.8862 26.064 27.664H24.064ZM23.3232 29.4315C22.9958 29.7841 22.2138 30.12 20.6 30.12V32.12C22.3462 32.12 23.8682 31.7838 24.7888 30.7924L23.3232 29.4315ZM67.8759 20.032L67.2442 19.2568L67.237 19.2626L67.2299 19.2686L67.8759 20.032ZM67.9479 11.32L67.2708 12.0559L67.2861 12.07L67.3019 12.0834L67.9479 11.32ZM56.9319 11.248L57.4255 12.1177L57.4329 12.1134L56.9319 11.248ZM52.3959 15.64L51.7163 16.3736L52.5873 17.1804L53.2343 16.185L52.3959 15.64ZM45.5559 9.304L44.7633 8.69428L44.2069 9.41753L44.8763 10.0376L45.5559 9.304ZM48.7239 5.92L49.3824 6.67257L49.3911 6.66496L49.3996 6.65715L48.7239 5.92ZM52.5399 3.256L52.9993 4.14421L53.0112 4.13805L53.023 4.13157L52.5399 3.256ZM57.2199 1.528L57.4368 2.50418L57.4465 2.50202L57.4562 2.49966L57.2199 1.528ZM76.2279 4.552L75.6122 5.34002L75.6258 5.35061L75.6397 5.36073L76.2279 4.552ZM79.8999 8.728L79.0161 9.19589L79.8999 8.728ZM80.4039 18.52L79.4778 18.1427L80.4039 18.52ZM78.2439 21.904L77.5189 21.2152L77.5096 21.225L77.5006 21.235L78.2439 21.904ZM75.1479 24.28L75.5951 25.1744L75.6022 25.1709L75.6092 25.1672L75.1479 24.28ZM71.4039 25.504L71.2281 24.5196L70.4039 24.6668V25.504H71.4039ZM71.4039 25.936H70.4039V26.7788L71.2345 26.9215L71.4039 25.936ZM79.0359 29.824L78.3205 30.5227L78.3287 30.5312L78.3371 30.5394L79.0359 29.824ZM80.6919 44.152L79.807 43.6863L79.8021 43.6955L79.7974 43.7048L80.6919 44.152ZM76.7319 48.832L76.1318 48.0319L76.1211 48.0402L76.7319 48.832ZM70.5399 51.856L70.8095 52.819L70.822 52.8154L70.5399 51.856ZM55.7079 52.072L55.4427 53.0362L55.4487 53.0378L55.7079 52.072ZM50.5959 49.984L50.0733 50.8366L50.0835 50.8428L50.0937 50.8488L50.5959 49.984ZM46.7079 46.888L45.9572 47.5486L45.9712 47.5646L45.9859 47.5799L46.7079 46.888ZM43.8999 43.216L43.2874 42.4255L42.5578 42.9908L43.0629 43.7633L43.8999 43.216ZM51.8919 37.024L52.7737 36.5523L52.2153 35.5084L51.2794 36.2335L51.8919 37.024ZM55.9959 42.136L55.3602 42.9079L55.3725 42.9181L55.3851 42.9278L55.9959 42.136ZM68.6679 42.28L69.3208 43.0374L68.6679 42.28ZM68.3799 32.2L67.8252 33.0321L67.834 33.0379L67.843 33.0437L68.3799 32.2ZM57.0759 30.616H56.0759V31.616H57.0759V30.616ZM57.0759 21.616V20.616H56.0759V21.616H57.0759ZM61.8279 22.616C64.6963 22.616 67.0038 22.0799 68.5218 20.7954L67.2299 19.2686C66.252 20.0961 64.5275 20.616 61.8279 20.616V22.616ZM68.5076 20.8072C70.0131 19.5805 70.8199 18.0097 70.8199 16.144H68.8199C68.8199 17.3503 68.3306 18.3715 67.2442 19.2568L68.5076 20.8072ZM70.8199 16.144V15.64H68.8199V16.144H70.8199ZM70.8199 15.64C70.8199 13.5601 70.094 11.826 68.5938 10.5566L67.3019 12.0834C68.2977 12.926 68.8199 14.0719 68.8199 15.64H70.8199ZM68.6249 10.5841C67.1797 9.25444 65.1738 8.664 62.7639 8.664V10.664C64.8659 10.664 66.3161 11.1776 67.2708 12.0559L68.6249 10.5841ZM62.7639 8.664C60.5201 8.664 58.4037 9.24037 56.4308 10.3826L57.4329 12.1134C59.108 11.1436 60.8797 10.664 62.7639 10.664V8.664ZM56.4383 10.3783C54.5068 11.4745 52.882 13.0572 51.5574 15.095L53.2343 16.185C54.4058 14.3828 55.8049 13.0375 57.4255 12.1177L56.4383 10.3783ZM53.0754 14.9064L46.2354 8.57038L44.8763 10.0376L51.7163 16.3736L53.0754 14.9064ZM46.3485 9.91371C47.2697 8.71612 48.281 7.63624 49.3824 6.67257L48.0654 5.16742C46.8627 6.21975 45.762 7.39587 44.7633 8.69428L46.3485 9.91371ZM49.3996 6.65715C50.4863 5.66101 51.6855 4.82375 52.9993 4.14421L52.0805 2.36778C50.6102 3.12824 49.2654 4.06698 48.0481 5.18284L49.3996 6.65715ZM53.023 4.13157C54.3226 3.41451 55.7914 2.86982 57.4368 2.50418L57.0029 0.551811C55.1923 0.954176 53.5411 1.56149 52.0568 2.38042L53.023 4.13157ZM57.4562 2.49966C59.1408 2.0899 61.0516 1.88 63.1959 1.88V-0.120003C60.9241 -0.120003 58.8509 0.102093 56.9835 0.55633L57.4562 2.49966ZM63.1959 1.88C65.857 1.88 68.2355 2.18357 70.3399 2.77831L70.8838 0.853689C68.5723 0.200424 66.0067 -0.120003 63.1959 -0.120003V1.88ZM70.3399 2.77831C72.4449 3.37319 74.1948 4.23267 75.6122 5.34002L76.8435 3.76397C75.1889 2.47133 73.1949 1.50681 70.8838 0.853689L70.3399 2.77831ZM75.6397 5.36073C77.1081 6.42869 78.2277 7.70666 79.0161 9.19589L80.7837 8.26011C79.8441 6.48533 78.5156 4.97931 76.816 3.74326L75.6397 5.36073ZM79.0161 9.19589C79.7969 10.6708 80.1959 12.3318 80.1959 14.2H82.1959C82.1959 12.0362 81.7308 10.0492 80.7837 8.26011L79.0161 9.19589ZM80.1959 14.2C80.1959 15.6716 79.951 16.9813 79.4778 18.1427L81.33 18.8973C81.9128 17.4667 82.1959 15.8964 82.1959 14.2H80.1959ZM79.4778 18.1427C78.9941 19.3299 78.3402 20.3507 77.5189 21.2152L78.9689 22.5927C79.9715 21.5373 80.7576 20.3021 81.33 18.8973L79.4778 18.1427ZM77.5006 21.235C76.7205 22.1018 75.7853 22.8214 74.6865 23.3928L75.6092 25.1672C76.9104 24.4906 78.0393 23.6262 78.9872 22.573L77.5006 21.235ZM74.7007 23.3856C73.6394 23.9162 72.4834 24.2954 71.2281 24.5196L71.5797 26.4884C73.0123 26.2326 74.3524 25.7958 75.5951 25.1744L74.7007 23.3856ZM70.4039 25.504V25.936H72.4039V25.504H70.4039ZM71.2345 26.9215C74.1164 27.4169 76.4638 28.6218 78.3205 30.5227L79.7513 29.1253C77.576 26.8982 74.8353 25.5111 71.5733 24.9505L71.2345 26.9215ZM78.3371 30.5394C80.1711 32.3306 81.1319 34.788 81.1319 38.032H83.1319C83.1319 34.364 82.0287 31.3494 79.7346 29.1086L78.3371 30.5394ZM81.1319 38.032C81.1319 40.1414 80.6844 42.0191 79.807 43.6863L81.5768 44.6177C82.6193 42.6369 83.1319 40.4346 83.1319 38.032H81.1319ZM79.7974 43.7048C78.959 45.3817 77.7432 46.8235 76.1319 48.032L77.3319 49.632C79.1765 48.2485 80.6008 46.5703 81.5863 44.5992L79.7974 43.7048ZM76.1211 48.0402C74.557 49.2468 72.6102 50.2047 70.2577 50.8966L70.822 52.8154C73.3655 52.0673 75.5468 51.0092 77.3427 49.6238L76.1211 48.0402ZM70.2702 50.893C67.9731 51.5362 65.3778 51.864 62.4759 51.864V53.864C65.5259 53.864 68.3067 53.5198 70.8095 52.819L70.2702 50.893ZM62.4759 51.864C59.9987 51.864 57.8326 51.6067 55.967 51.1062L55.4487 53.0378C57.5191 53.5933 59.8651 53.864 62.4759 53.864V51.864ZM55.973 51.1078C54.1233 50.5991 52.501 49.9339 51.098 49.1192L50.0937 50.8488C51.6667 51.7621 53.4525 52.4889 55.4427 53.0362L55.973 51.1078ZM51.1184 49.1314C49.6967 48.26 48.4693 47.2807 47.4299 46.1961L45.9859 47.5799C47.1545 48.7993 48.519 49.884 50.0733 50.8366L51.1184 49.1314ZM47.4586 46.2274C46.4318 45.0605 45.525 43.8742 44.7368 42.6687L43.0629 43.7633C43.9067 45.0538 44.872 46.3155 45.9572 47.5486L47.4586 46.2274ZM44.5123 44.0065L52.5043 37.8145L51.2794 36.2335L43.2874 42.4255L44.5123 44.0065ZM51.0101 37.4957C52.1691 39.6625 53.617 41.4724 55.3602 42.9079L56.6316 41.3641C55.1107 40.1116 53.8227 38.5135 52.7737 36.5523L51.0101 37.4957ZM55.3851 42.9278C57.2879 44.3957 59.756 45.08 62.6919 45.08V43.08C60.0598 43.08 58.0639 42.4683 56.6067 41.3442L55.3851 42.9278ZM62.6919 45.08C65.4261 45.08 67.6851 44.4475 69.3208 43.0374L68.0149 41.5226C66.8667 42.5125 65.1416 43.08 62.6919 43.08V45.08ZM69.3208 43.0374C70.9673 41.6181 71.7559 39.6667 71.7559 37.312H69.7559C69.7559 39.1813 69.1525 40.5419 68.0149 41.5226L69.3208 43.0374ZM71.7559 37.312V36.808H69.7559V37.312H71.7559ZM71.7559 36.808C71.7559 34.4425 70.8217 32.5686 68.9168 31.3563L67.843 33.0437C69.106 33.8474 69.7559 35.0455 69.7559 36.808H71.7559ZM68.9346 31.368C67.1244 30.1611 64.6947 29.616 61.7559 29.616V31.616C64.4811 31.616 66.4674 32.1269 67.8252 33.0321L68.9346 31.368ZM61.7559 29.616H57.0759V31.616H61.7559V29.616ZM58.0759 30.616V21.616H56.0759V30.616H58.0759ZM57.0759 22.616H61.8279V20.616H57.0759V22.616Z" fill="#D6D6D6"/>
</svg>
