<svg width="84" height="53" viewBox="0 0 84 53" fill="none" xmlns="http://www.w3.org/2000/svg">
<path d="M5.696 46.024L4.87472 46.5946L4.87879 46.6003L5.696 46.024ZM5.696 7.72L4.87877 7.14364L4.87474 7.14944L5.696 7.72ZM35.432 7.72L34.6107 8.29057L34.6148 8.29634L35.432 7.72ZM35.432 46.024L34.6148 45.4476L34.6107 45.4534L35.432 46.024ZM27.296 40.984L26.4289 40.4859L26.4249 40.4929L26.421 40.4999L27.296 40.984ZM27.296 12.76L26.421 13.2441L26.4249 13.2511L26.4289 13.2581L27.296 12.76ZM13.832 12.76L12.9649 12.2619L12.9609 12.2689L12.957 12.2759L13.832 12.76ZM13.832 40.984L12.957 41.4681L12.9609 41.4751L12.9649 41.4821L13.832 40.984ZM17.072 30.112L16.3392 30.7924L16.3518 30.806L16.3649 30.8191L17.072 30.112ZM17.072 23.632L16.3649 22.9249L16.3518 22.938L16.3392 22.9515L17.072 23.632ZM24.056 23.632L23.3232 24.3125L23.3358 24.326L23.3489 24.3391L24.056 23.632ZM24.056 30.112L23.3489 29.4049L23.3358 29.418L23.3232 29.4315L24.056 30.112ZM20.6 51.864C14.1297 51.864 9.50224 49.6858 6.51321 45.4477L4.87879 46.6003C8.32176 51.4822 13.6304 53.864 20.6 53.864V51.864ZM6.51726 45.4534C3.5091 41.1235 1.944 34.9685 1.944 26.872H-0.0559999C-0.0559999 35.1915 1.5469 41.8045 4.87474 46.5946L6.51726 45.4534ZM1.944 26.872C1.944 18.7755 3.5091 12.6205 6.51726 8.29056L4.87474 7.14944C1.5469 11.9395 -0.0559999 18.5525 -0.0559999 26.872H1.944ZM6.51321 8.29634C9.50224 4.05817 14.1297 1.88 20.6 1.88V-0.120003C13.6303 -0.120003 8.32176 2.26183 4.87879 7.14365L6.51321 8.29634ZM20.6 1.88C27.0707 1.88 31.6703 4.05805 34.6107 8.29056L36.2533 7.14944C32.8577 2.26195 27.5693 -0.120003 20.6 -0.120003V1.88ZM34.6148 8.29634C37.6678 12.6253 39.256 18.7779 39.256 26.872H41.256C41.256 18.5501 39.6282 11.9347 36.2492 7.14365L34.6148 8.29634ZM39.256 26.872C39.256 34.9661 37.6678 41.1187 34.6148 45.4477L36.2492 46.6003C39.6282 41.8093 41.256 35.1939 41.256 26.872H39.256ZM34.6107 45.4534C31.6703 49.686 27.0707 51.864 20.6 51.864V53.864C27.5693 53.864 32.8577 51.482 36.2533 46.5946L34.6107 45.4534ZM20.6 45.368C24.0741 45.368 26.7011 44.1253 28.171 41.4681L26.421 40.4999C25.3949 42.3547 23.5579 43.368 20.6 43.368V45.368ZM28.1631 41.4821C29.5814 39.0132 30.24 35.671 30.24 31.552H28.24C28.24 35.497 27.6026 38.4428 26.4289 40.4859L28.1631 41.4821ZM30.24 31.552V22.192H28.24V31.552H30.24ZM30.24 22.192C30.24 18.073 29.5814 14.7308 28.1631 12.2619L26.4289 13.2581C27.6026 15.3012 28.24 18.247 28.24 22.192H30.24ZM28.171 12.2759C26.7011 9.61869 24.0741 8.376 20.6 8.376V10.376C23.5579 10.376 25.3949 11.3893 26.421 13.2441L28.171 12.2759ZM20.6 8.376C17.1249 8.376 14.4836 9.61823 12.9649 12.2619L14.6991 13.2581C15.7724 11.3898 17.6431 10.376 20.6 10.376V8.376ZM12.957 12.2759C11.5934 14.7409 10.96 18.0773 10.96 22.192H12.96C12.96 18.2427 13.5746 15.2911 14.707 13.2441L12.957 12.2759ZM10.96 22.192V31.552H12.96V22.192H10.96ZM10.96 31.552C10.96 35.6667 11.5934 39.0031 12.957 41.4681L14.707 40.4999C13.5746 38.4529 12.96 35.5013 12.96 31.552H10.96ZM12.9649 41.4821C14.4836 44.1258 17.1249 45.368 20.6 45.368V43.368C17.6431 43.368 15.7724 42.3542 14.6991 40.4859L12.9649 41.4821ZM20.6 30.12C18.9977 30.12 18.1632 29.789 17.7791 29.4049L16.3649 30.8191C17.3248 31.779 18.8423 32.12 20.6 32.12V30.12ZM17.8048 29.4315C17.3612 28.9538 17.136 28.3846 17.136 27.664H15.136C15.136 28.8634 15.5348 29.9262 16.3392 30.7924L17.8048 29.4315ZM17.136 27.664V26.08H15.136V27.664H17.136ZM17.136 26.08C17.136 25.3594 17.3612 24.7902 17.8048 24.3125L16.3392 22.9515C15.5348 23.8178 15.136 24.8806 15.136 26.08H17.136ZM17.7791 24.3391C18.1632 23.955 18.9977 23.624 20.6 23.624V21.624C18.8423 21.624 17.3248 21.965 16.3649 22.9249L17.7791 24.3391ZM20.6 23.624C22.2138 23.624 22.9958 23.9598 23.3232 24.3125L24.7888 22.9515C23.8682 21.9601 22.3462 21.624 20.6 21.624V23.624ZM23.3489 24.3391C23.8312 24.8214 24.064 25.3822 24.064 26.08H26.064C26.064 24.8578 25.6248 23.7866 24.7631 22.9249L23.3489 24.3391ZM24.064 26.08V27.664H26.064V26.08H24.064ZM24.064 27.664C24.064 28.3618 23.8312 28.9226 23.3489 29.4049L24.7631 30.8191C25.6248 29.9574 26.064 28.8862 26.064 27.664H24.064ZM23.3232 29.4315C22.9958 29.7841 22.2138 30.12 20.6 30.12V32.12C22.3462 32.12 23.8682 31.7838 24.7888 30.7924L23.3232 29.4315ZM66.5799 52H65.5799V53H66.5799V52ZM66.5799 42.352H67.5799V41.352H66.5799V42.352ZM43.9719 42.352H42.9719V43.352H43.9719V42.352ZM43.9719 33.136L43.1287 32.5984L42.9719 32.8443V33.136H43.9719ZM63.9879 1.744V0.743999H63.4395L63.1447 1.20637L63.9879 1.744ZM76.9479 1.744H77.9479V0.743999H76.9479V1.744ZM76.9479 34H75.9479V35H76.9479V34ZM83.4279 34H84.4279V33H83.4279V34ZM83.4279 42.352V43.352H84.4279V42.352H83.4279ZM76.9479 42.352V41.352H75.9479V42.352H76.9479ZM76.9479 52V53H77.9479V52H76.9479ZM52.6839 34L51.837 33.4682L50.8751 35H52.6839V34ZM66.5799 34V35H67.5799V34H66.5799ZM66.5799 12.904H67.5799V11.904H66.5799V12.904ZM65.9319 12.904V11.904H65.379L65.085 12.3722L65.9319 12.904ZM67.5799 52V42.352H65.5799V52H67.5799ZM66.5799 41.352H43.9719V43.352H66.5799V41.352ZM44.9719 42.352V33.136H42.9719V42.352H44.9719ZM44.8151 33.6736L64.8311 2.28163L63.1447 1.20637L43.1287 32.5984L44.8151 33.6736ZM63.9879 2.744H76.9479V0.743999H63.9879V2.744ZM75.9479 1.744V34H77.9479V1.744H75.9479ZM76.9479 35H83.4279V33H76.9479V35ZM82.4279 34V42.352H84.4279V34H82.4279ZM83.4279 41.352H76.9479V43.352H83.4279V41.352ZM75.9479 42.352V52H77.9479V42.352H75.9479ZM76.9479 51H66.5799V53H76.9479V51ZM52.6839 35H66.5799V33H52.6839V35ZM67.5799 34V12.904H65.5799V34H67.5799ZM66.5799 11.904H65.9319V13.904H66.5799V11.904ZM65.085 12.3722L51.837 33.4682L53.5307 34.5318L66.7787 13.4358L65.085 12.3722Z" fill="#D6D6D6"/>
</svg>
