<svg width="83" height="53" viewBox="0 0 83 53" fill="none" xmlns="http://www.w3.org/2000/svg">
<path d="M5.696 46.024L4.87472 46.5946L4.87879 46.6003L5.696 46.024ZM5.696 7.72L4.87877 7.14364L4.87474 7.14944L5.696 7.72ZM35.432 7.72L34.6107 8.29057L34.6148 8.29634L35.432 7.72ZM35.432 46.024L34.6148 45.4476L34.6107 45.4534L35.432 46.024ZM27.296 40.984L26.4289 40.4859L26.4249 40.4929L26.421 40.4999L27.296 40.984ZM27.296 12.76L26.421 13.2441L26.4249 13.2511L26.4289 13.2581L27.296 12.76ZM13.832 12.76L12.9649 12.2619L12.9609 12.2689L12.957 12.2759L13.832 12.76ZM13.832 40.984L12.957 41.4681L12.9609 41.4751L12.9649 41.4821L13.832 40.984ZM17.072 30.112L16.3392 30.7924L16.3518 30.806L16.3649 30.8191L17.072 30.112ZM17.072 23.632L16.3649 22.9249L16.3518 22.938L16.3392 22.9515L17.072 23.632ZM24.056 23.632L23.3232 24.3125L23.3358 24.326L23.3489 24.3391L24.056 23.632ZM24.056 30.112L23.3489 29.4049L23.3358 29.418L23.3232 29.4315L24.056 30.112ZM20.6 51.864C14.1297 51.864 9.50224 49.6858 6.51321 45.4477L4.87879 46.6003C8.32176 51.4822 13.6304 53.864 20.6 53.864V51.864ZM6.51726 45.4534C3.5091 41.1235 1.944 34.9685 1.944 26.872H-0.0559999C-0.0559999 35.1915 1.5469 41.8045 4.87474 46.5946L6.51726 45.4534ZM1.944 26.872C1.944 18.7755 3.5091 12.6205 6.51726 8.29056L4.87474 7.14944C1.5469 11.9395 -0.0559999 18.5525 -0.0559999 26.872H1.944ZM6.51321 8.29634C9.50224 4.05817 14.1297 1.88 20.6 1.88V-0.120003C13.6303 -0.120003 8.32176 2.26183 4.87879 7.14365L6.51321 8.29634ZM20.6 1.88C27.0707 1.88 31.6703 4.05805 34.6107 8.29056L36.2533 7.14944C32.8577 2.26195 27.5693 -0.120003 20.6 -0.120003V1.88ZM34.6148 8.29634C37.6678 12.6253 39.256 18.7779 39.256 26.872H41.256C41.256 18.5501 39.6282 11.9347 36.2492 7.14365L34.6148 8.29634ZM39.256 26.872C39.256 34.9661 37.6678 41.1187 34.6148 45.4477L36.2492 46.6003C39.6282 41.8093 41.256 35.1939 41.256 26.872H39.256ZM34.6107 45.4534C31.6703 49.686 27.0707 51.864 20.6 51.864V53.864C27.5693 53.864 32.8577 51.482 36.2533 46.5946L34.6107 45.4534ZM20.6 45.368C24.0741 45.368 26.7011 44.1253 28.171 41.4681L26.421 40.4999C25.3949 42.3547 23.5579 43.368 20.6 43.368V45.368ZM28.1631 41.4821C29.5814 39.0132 30.24 35.671 30.24 31.552H28.24C28.24 35.497 27.6026 38.4428 26.4289 40.4859L28.1631 41.4821ZM30.24 31.552V22.192H28.24V31.552H30.24ZM30.24 22.192C30.24 18.073 29.5814 14.7308 28.1631 12.2619L26.4289 13.2581C27.6026 15.3012 28.24 18.247 28.24 22.192H30.24ZM28.171 12.2759C26.7011 9.61869 24.0741 8.376 20.6 8.376V10.376C23.5579 10.376 25.3949 11.3893 26.421 13.2441L28.171 12.2759ZM20.6 8.376C17.1249 8.376 14.4836 9.61823 12.9649 12.2619L14.6991 13.2581C15.7724 11.3898 17.6431 10.376 20.6 10.376V8.376ZM12.957 12.2759C11.5934 14.7409 10.96 18.0773 10.96 22.192H12.96C12.96 18.2427 13.5746 15.2911 14.707 13.2441L12.957 12.2759ZM10.96 22.192V31.552H12.96V22.192H10.96ZM10.96 31.552C10.96 35.6667 11.5934 39.0031 12.957 41.4681L14.707 40.4999C13.5746 38.4529 12.96 35.5013 12.96 31.552H10.96ZM12.9649 41.4821C14.4836 44.1258 17.1249 45.368 20.6 45.368V43.368C17.6431 43.368 15.7724 42.3542 14.6991 40.4859L12.9649 41.4821ZM20.6 30.12C18.9977 30.12 18.1632 29.789 17.7791 29.4049L16.3649 30.8191C17.3248 31.779 18.8423 32.12 20.6 32.12V30.12ZM17.8048 29.4315C17.3612 28.9538 17.136 28.3846 17.136 27.664H15.136C15.136 28.8634 15.5348 29.9262 16.3392 30.7924L17.8048 29.4315ZM17.136 27.664V26.08H15.136V27.664H17.136ZM17.136 26.08C17.136 25.3594 17.3612 24.7902 17.8048 24.3125L16.3392 22.9515C15.5348 23.8178 15.136 24.8806 15.136 26.08H17.136ZM17.7791 24.3391C18.1632 23.955 18.9977 23.624 20.6 23.624V21.624C18.8423 21.624 17.3248 21.965 16.3649 22.9249L17.7791 24.3391ZM20.6 23.624C22.2138 23.624 22.9958 23.9598 23.3232 24.3125L24.7888 22.9515C23.8682 21.9601 22.3462 21.624 20.6 21.624V23.624ZM23.3489 24.3391C23.8312 24.8214 24.064 25.3822 24.064 26.08H26.064C26.064 24.8578 25.6248 23.7866 24.7631 22.9249L23.3489 24.3391ZM24.064 26.08V27.664H26.064V26.08H24.064ZM24.064 27.664C24.064 28.3618 23.8312 28.9226 23.3489 29.4049L24.7631 30.8191C25.6248 29.9574 26.064 28.8862 26.064 27.664H24.064ZM23.3232 29.4315C22.9958 29.7841 22.2138 30.12 20.6 30.12V32.12C22.3462 32.12 23.8682 31.7838 24.7888 30.7924L23.3232 29.4315ZM79.9719 11.176V12.176H80.9719V11.176H79.9719ZM56.7159 11.176V10.176H55.7857L55.7185 11.1038L56.7159 11.176ZM55.5639 27.088L54.5665 27.0158L54.4889 28.088H55.5639V27.088ZM56.2119 27.088V28.088H56.8536L57.1209 27.5047L56.2119 27.088ZM58.0119 23.92L58.8311 24.4935L58.8376 24.4842L58.8439 24.4747L58.0119 23.92ZM60.3879 21.4L60.9811 22.2051L60.9945 22.1952L61.0075 22.1849L60.3879 21.4ZM63.5559 19.744L63.8606 20.6964L63.5559 19.744ZM73.4919 20.248L73.1247 21.1782L73.1329 21.1813L73.4919 20.248ZM78.3879 23.416L77.6808 24.1231L77.693 24.1353L77.7056 24.1471L78.3879 23.416ZM81.7719 28.456L80.8449 28.8312L80.8481 28.839L81.7719 28.456ZM77.8839 47.824L77.1979 47.0964L77.1926 47.1014L77.1874 47.1064L77.8839 47.824ZM71.7639 51.568L72.0967 52.511L72.1049 52.5081L72.113 52.5051L71.7639 51.568ZM56.8599 52.072L56.5947 53.0362L56.8599 52.072ZM51.7479 49.984L51.2128 50.8288L51.2291 50.8391L51.2457 50.8488L51.7479 49.984ZM47.9319 46.888L47.1812 47.5486L47.1952 47.5646L47.2099 47.5799L47.9319 46.888ZM45.1959 43.216L44.5765 42.4309L43.8778 42.9822L44.3442 43.7401L45.1959 43.216ZM53.0439 37.024L53.9014 36.5095L53.3167 35.535L52.4245 36.2389L53.0439 37.024ZM54.8439 39.76L54.0332 40.3455L54.0436 40.3599L54.0545 40.3739L54.8439 39.76ZM57.0759 42.064L56.4402 42.8359L56.4647 42.8561L56.4904 42.8747L57.0759 42.064ZM59.8839 43.576L59.5279 44.5105L59.554 44.5204L59.5807 44.5289L59.8839 43.576ZM69.5319 41.92L68.8016 41.2368L68.8008 41.2377L69.5319 41.92ZM69.5319 29.896L70.2265 29.1766L69.5319 29.896ZM58.7319 29.104L59.2417 29.9643L59.2509 29.9588L58.7319 29.104ZM55.7799 31.408L55.643 32.3986L56.1773 32.4724L56.5325 32.0665L55.7799 31.408ZM46.9239 30.184L45.926 30.1183L45.8649 31.0471L46.787 31.1746L46.9239 30.184ZM48.7959 1.744V0.743999H47.8595L47.798 1.67832L48.7959 1.744ZM79.9719 1.744H80.9719V0.743999H79.9719V1.744ZM79.9719 10.176H56.7159V12.176H79.9719V10.176ZM55.7185 11.1038L54.5665 27.0158L56.5613 27.1602L57.7133 11.2482L55.7185 11.1038ZM55.5639 28.088H56.2119V26.088H55.5639V28.088ZM57.1209 27.5047C57.6258 26.4031 58.1964 25.4002 58.8311 24.4935L57.1926 23.3465C56.4834 24.3598 55.8539 25.4689 55.3028 26.6713L57.1209 27.5047ZM58.8439 24.4747C59.456 23.5566 60.1689 22.8035 60.9811 22.2051L59.7947 20.5949C58.7828 21.3405 57.9118 22.2673 57.1798 23.3653L58.8439 24.4747ZM61.0075 22.1849C61.8178 21.5452 62.7651 21.047 63.8606 20.6964L63.2511 18.7916C61.9466 19.209 60.7819 19.8148 59.7682 20.6151L61.0075 22.1849ZM63.8606 20.6964C64.9433 20.35 66.2055 20.168 67.6599 20.168V18.168C66.0423 18.168 64.5685 18.37 63.2511 18.7916L63.8606 20.6964ZM67.6599 20.168C69.6049 20.168 71.4237 20.5067 73.1247 21.1782L73.859 19.3178C71.9121 18.5493 69.8429 18.168 67.6599 18.168V20.168ZM73.1329 21.1813C74.8768 21.8521 76.3896 22.8319 77.6808 24.1231L79.095 22.7089C77.6021 21.2161 75.8509 20.0839 73.8509 19.3147L73.1329 21.1813ZM77.7056 24.1471C79.0284 25.3817 80.0778 26.936 80.8449 28.8312L82.6988 28.0808C81.8339 25.944 80.6273 24.1383 79.0702 22.6849L77.7056 24.1471ZM80.8481 28.839C81.6059 30.6666 81.9959 32.7652 81.9959 35.152H83.9959C83.9959 32.5468 83.5698 30.1814 82.6956 28.073L80.8481 28.839ZM81.9959 35.152C81.9959 37.5807 81.5839 39.8053 80.7714 41.8366L82.6284 42.5794C83.5438 40.2907 83.9959 37.8113 83.9959 35.152H81.9959ZM80.7714 41.8366C79.961 43.8627 78.7713 45.6129 77.1979 47.0964L78.5699 48.5516C80.3565 46.8671 81.7108 44.8733 82.6284 42.5794L80.7714 41.8366ZM77.1874 47.1064C75.6684 48.5807 73.7522 49.7601 71.4148 50.6309L72.113 52.5051C74.6715 51.5519 76.8353 50.2353 78.5804 48.5416L77.1874 47.1064ZM71.4311 50.625C69.1091 51.4445 66.4407 51.864 63.4119 51.864V53.864C66.623 53.864 69.5227 53.4195 72.0967 52.511L71.4311 50.625ZM63.4119 51.864C61.0338 51.864 58.9416 51.6073 57.125 51.1078L56.5947 53.0362C58.6182 53.5927 60.8939 53.864 63.4119 53.864V51.864ZM57.125 51.1078C55.2753 50.5991 53.653 49.9339 52.25 49.1192L51.2457 50.8488C52.8187 51.7621 54.6045 52.4889 56.5947 53.0362L57.125 51.1078ZM52.2829 49.1392C50.9066 48.2675 49.6983 47.2859 48.6539 46.1961L47.2099 47.5799C48.3735 48.7941 49.7092 49.8765 51.2128 50.8288L52.2829 49.1392ZM48.6826 46.2274C47.6607 45.0661 46.7833 43.8875 46.0475 42.6919L44.3442 43.7401C45.1445 45.0405 46.091 46.3099 47.1812 47.5486L48.6826 46.2274ZM45.8153 44.0011L53.6633 37.8091L52.4245 36.2389L44.5765 42.4309L45.8153 44.0011ZM52.1864 37.5385C52.7762 38.5216 53.3918 39.4574 54.0332 40.3455L55.6546 39.1745C55.048 38.3346 54.4635 37.4464 53.9014 36.5095L52.1864 37.5385ZM54.0545 40.3739C54.7702 41.294 55.5653 42.1155 56.4402 42.8359L57.7116 41.2921C56.9544 40.6685 56.2616 39.954 55.6332 39.1461L54.0545 40.3739ZM56.4904 42.8747C57.426 43.5504 58.4393 44.0958 59.5279 44.5105L60.2399 42.6415C59.3125 42.2882 58.4537 41.8256 57.6614 41.2533L56.4904 42.8747ZM59.5807 44.5289C60.753 44.9019 62.0581 45.08 63.4839 45.08V43.08C62.2216 43.08 61.1268 42.9221 60.1871 42.6231L59.5807 44.5289ZM63.4839 45.08C66.3444 45.08 68.6686 44.3105 70.2629 42.6023L68.8008 41.2377C67.7072 42.4095 65.9994 43.08 63.4839 43.08V45.08ZM70.2621 42.6032C71.8612 40.8938 72.6199 38.6636 72.6199 36.016H70.6199C70.6199 38.2644 69.9866 39.9702 68.8016 41.2368L70.2621 42.6032ZM72.6199 36.016V35.44H70.6199V36.016H72.6199ZM72.6199 35.44C72.6199 32.8794 71.8546 30.7485 70.2265 29.1766L68.8373 30.6154C69.9932 31.7315 70.6199 33.2966 70.6199 35.44H72.6199ZM70.2265 29.1766C68.602 27.6082 66.4071 26.88 63.7719 26.88V28.88C66.0326 28.88 67.6777 29.4958 68.8373 30.6154L70.2265 29.1766ZM63.7719 26.88C61.6237 26.88 59.7517 27.3149 58.2129 28.2492L59.2509 29.9588C60.4 29.2611 61.8881 28.88 63.7719 28.88V26.88ZM58.2221 28.2437C56.8741 29.0425 55.7937 29.8736 55.0273 30.7495L56.5325 32.0665C57.11 31.4064 57.9977 30.7015 59.2417 29.9643L58.2221 28.2437ZM55.9168 30.4174L47.0608 29.1934L46.787 31.1746L55.643 32.3986L55.9168 30.4174ZM47.9217 30.2497L49.7937 1.80968L47.798 1.67832L45.926 30.1183L47.9217 30.2497ZM48.7959 2.744H79.9719V0.743999H48.7959V2.744ZM78.9719 1.744V11.176H80.9719V1.744H78.9719Z" fill="#D6D6D6"/>
</svg>
