<svg width="1127" height="249" viewBox="0 0 1127 249" fill="none" xmlns="http://www.w3.org/2000/svg">
<path d="M55.412 48.748L54.6705 49.4189L54.6872 49.4374L54.7049 49.4551L55.412 48.748ZM55.412 6.694L54.7049 5.98689L54.6958 5.99596L54.687 6.00525L55.412 6.694ZM100.726 6.694L100.001 7.38274L100.01 7.39204L100.019 7.40111L100.726 6.694ZM100.726 48.748L100.002 48.0583L100.001 48.0592L100.726 48.748ZM0.644001 207.51V206.51H-0.355999V207.51H0.644001ZM54.108 207.51V208.51H55.108V207.51H54.108ZM54.108 114.274H55.108V113.274H54.108V114.274ZM0.644001 114.274H-0.355999V115.274H0.644001V114.274ZM0.644001 76.784V75.784H-0.355999V76.784H0.644001ZM102.356 76.784H103.356V75.784H102.356V76.784ZM102.356 207.51H101.356V208.51H102.356V207.51ZM151.908 207.51H152.908V206.51H151.908V207.51ZM151.908 245V246H152.908V245H151.908ZM0.644001 245H-0.355999V246H0.644001V245ZM78.232 54.268C67.443 54.268 60.1779 52.0996 56.1191 48.0409L54.7049 49.4551C59.3395 54.0897 67.2876 56.268 78.232 56.268V54.268ZM56.1535 48.0771C52.1949 43.7018 50.218 38.5093 50.218 32.448H48.218C48.218 38.992 50.3704 44.6662 54.6705 49.4189L56.1535 48.0771ZM50.218 32.448V22.994H48.218V32.448H50.218ZM50.218 22.994C50.218 16.7058 52.2004 11.5265 56.137 7.38275L54.687 6.00525C50.3649 10.5548 48.218 16.2422 48.218 22.994H50.218ZM56.1191 7.4011C60.1779 3.34235 67.443 1.17399 78.232 1.17399V-0.826012C67.2876 -0.826012 59.3395 1.35229 54.7049 5.98689L56.1191 7.4011ZM78.232 1.17399C89.0289 1.17399 96.1658 3.34565 100.001 7.38274L101.451 6.00525C97.0276 1.349 89.1685 -0.826012 78.232 -0.826012V1.17399ZM100.019 7.40111C104.166 11.548 106.246 16.7214 106.246 22.994H108.246C108.246 16.2266 105.98 10.5333 101.433 5.98689L100.019 7.40111ZM106.246 22.994V32.448H108.246V22.994H106.246ZM106.246 32.448C106.246 38.4939 104.171 43.6803 100.002 48.0583L101.45 49.4376C105.974 44.6877 108.246 39.0074 108.246 32.448H106.246ZM100.001 48.0592C96.1658 52.0963 89.0289 54.268 78.232 54.268V56.268C89.1685 56.268 97.0276 54.093 101.451 49.4367L100.001 48.0592ZM0.644001 208.51H54.108V206.51H0.644001V208.51ZM55.108 207.51V114.274H53.108V207.51H55.108ZM54.108 113.274H0.644001V115.274H54.108V113.274ZM1.644 114.274V76.784H-0.355999V114.274H1.644ZM0.644001 77.784H102.356V75.784H0.644001V77.784ZM101.356 76.784V207.51H103.356V76.784H101.356ZM102.356 208.51H151.908V206.51H102.356V208.51ZM150.908 207.51V245H152.908V207.51H150.908ZM151.908 244H0.644001V246H151.908V244ZM1.644 245V207.51H-0.355999V245H1.644ZM186.663 245H185.663V246H186.663V245ZM186.663 76.784V75.784H185.663V76.784H186.663ZM234.911 76.784H235.911V75.784H234.911V76.784ZM234.911 107.428H233.911V108.428H234.911V107.428ZM236.867 107.428V108.428H237.538L237.792 107.807L236.867 107.428ZM254.145 83.304L254.759 84.0934L254.764 84.0889L254.145 83.304ZM268.163 75.806L268.479 76.7547L268.49 76.7509L268.501 76.7469L268.163 75.806ZM308.587 77.11L308.2 78.0322L308.213 78.0376L308.226 78.0426L308.587 77.11ZM325.865 89.172L326.615 88.5114L325.865 89.172ZM336.949 109.058L336 109.374L336.004 109.386L336.008 109.398L336.949 109.058ZM341.187 245V246H342.187V245H341.187ZM292.939 245H291.939V246H292.939V245ZM253.493 111.666L253.735 112.636L253.755 112.631L253.775 112.625L253.493 111.666ZM244.039 116.23L244.608 117.052L244.628 117.038L244.648 117.023L244.039 116.23ZM237.193 123.728L236.324 123.232L236.311 123.256L236.298 123.281L237.193 123.728ZM234.911 245V246H235.911V245H234.911ZM187.663 245V76.784H185.663V245H187.663ZM186.663 77.784H234.911V75.784H186.663V77.784ZM233.911 76.784V107.428H235.911V76.784H233.911ZM234.911 108.428H236.867V106.428H234.911V108.428ZM237.792 107.807C239.722 103.089 242.08 98.6958 244.864 94.6267L243.213 93.4973C240.347 97.6868 237.923 102.205 235.941 107.049L237.792 107.807ZM244.864 94.6267C247.631 90.5819 250.929 87.0719 254.759 84.0933L253.531 82.5146C249.536 85.6214 246.097 89.2834 243.213 93.4973L244.864 94.6267ZM254.764 84.0889C258.799 80.9038 263.368 78.4584 268.479 76.7547L267.846 74.8573C262.526 76.6309 257.749 79.1842 253.525 82.5191L254.764 84.0889ZM268.501 76.7469C273.81 74.8359 279.778 73.872 286.419 73.872V71.872C279.585 71.872 273.382 72.8641 267.824 74.8651L268.501 76.7469ZM286.419 73.872C294.341 73.872 301.597 75.2632 308.2 78.0322L308.973 76.1878C302.102 73.3062 294.579 71.872 286.419 71.872V73.872ZM308.226 78.0426C314.813 80.5924 320.439 84.5197 325.114 89.8326L326.615 88.5114C321.728 82.9576 315.835 78.8436 308.948 76.1774L308.226 78.0426ZM325.114 89.8326C329.795 95.1525 333.428 101.66 336 109.374L337.897 108.742C335.253 100.808 331.497 94.0582 326.615 88.5114L325.114 89.8326ZM336.008 109.398C338.786 117.091 340.187 125.992 340.187 136.116H342.187C342.187 125.811 340.762 116.673 337.889 108.718L336.008 109.398ZM340.187 136.116V245H342.187V136.116H340.187ZM341.187 244H292.939V246H341.187V244ZM293.939 245V142.636H291.939V245H293.939ZM293.939 142.636C293.939 131.647 291.551 123.218 286.603 117.53C281.631 111.815 274.224 109.036 264.577 109.036V111.036C273.837 111.036 280.612 113.691 285.094 118.842C289.599 124.021 291.939 131.892 291.939 142.636H293.939ZM264.577 109.036C260.783 109.036 256.993 109.594 253.21 110.707L253.775 112.625C257.382 111.564 260.981 111.036 264.577 111.036V109.036ZM253.25 110.696C249.64 111.598 246.364 113.18 243.429 115.437L244.648 117.023C247.364 114.934 250.39 113.472 253.735 112.636L253.25 110.696ZM243.469 115.408C240.519 117.451 238.136 120.062 236.324 123.232L238.061 124.224C239.727 121.308 241.908 118.921 244.608 117.052L243.469 115.408ZM236.298 123.281C234.694 126.489 233.911 130.234 233.911 134.486H235.911C235.911 130.479 236.648 127.052 238.087 124.175L236.298 123.281ZM233.911 134.486V245H235.911V134.486H233.911ZM234.911 244H186.663V246H234.911V244ZM407.889 240.436L407.508 241.36L407.513 241.362L407.889 240.436ZM376.919 217.29L376.239 216.557L375.596 217.154L376.104 217.87L376.919 217.29ZM403.977 192.188L404.717 191.515L404.038 190.768L403.297 191.455L403.977 192.188ZM426.797 209.14L426.368 210.043L426.382 210.05L426.395 210.056L426.797 209.14ZM479.609 210.77L480.071 211.657L480.084 211.65L480.098 211.643L479.609 210.77ZM482.217 187.298L481.749 188.182L481.77 188.193L481.792 188.203L482.217 187.298ZM466.895 182.734L467.06 181.748L467.05 181.746L466.895 182.734ZM439.837 178.496L439.992 177.508L439.979 177.506L439.837 178.496ZM418.647 173.606L418.303 174.545L418.317 174.55L418.331 174.555L418.647 173.606ZM401.695 164.152L402.329 163.378L401.695 164.152ZM390.285 149.808L391.18 149.361L390.285 149.808ZM406.259 87.868L405.663 87.0649L406.259 87.868ZM505.037 79.718L504.669 80.6477L504.679 80.6518L504.69 80.6557L505.037 79.718ZM533.073 98.626L533.824 99.287L534.393 98.6407L533.838 97.9819L533.073 98.626ZM508.949 126.01L508.213 126.687L508.965 127.505L509.7 126.671L508.949 126.01ZM489.715 112.318L489.288 113.222L489.715 112.318ZM438.859 134.16L438.391 135.044L438.412 135.055L438.434 135.065L438.859 134.16ZM454.181 138.398L454.017 139.384L454.025 139.386L454.181 138.398ZM480.913 142.636L480.757 143.624L480.764 143.625L480.772 143.626L480.913 142.636ZM502.103 147.852L501.759 148.791L501.773 148.796L501.787 148.801L502.103 147.852ZM519.055 156.98L518.422 157.754L518.43 157.761L518.439 157.768L519.055 156.98ZM530.791 171.324L531.686 170.877L530.791 171.324ZM514.491 233.59L513.893 232.788L513.887 232.793L514.491 233.59ZM456.789 247.912C438.197 247.912 422.03 245.101 408.266 239.51L407.513 241.362C421.567 247.072 438 249.912 456.789 249.912V247.912ZM408.271 239.512C394.712 233.916 384.557 226.305 377.734 216.71L376.104 217.87C383.191 227.835 393.683 235.655 407.508 241.36L408.271 239.512ZM377.599 218.023L404.657 192.921L403.297 191.455L376.239 216.557L377.599 218.023ZM403.237 192.861C409.844 200.128 417.556 205.858 426.368 210.043L427.226 208.237C418.652 204.164 411.15 198.592 404.717 191.515L403.237 192.861ZM426.395 210.056C435.452 214.032 445.698 216.008 457.115 216.008V214.008C445.93 214.008 435.964 212.072 427.199 208.224L426.395 210.056ZM457.115 216.008C466.757 216.008 474.437 214.587 480.071 211.657L479.148 209.883C473.915 212.604 466.599 214.008 457.115 214.008V216.008ZM480.098 211.643C482.941 210.05 485.119 208.033 486.581 205.576C488.044 203.118 488.759 200.274 488.759 197.078H486.759C486.759 199.967 486.116 202.448 484.863 204.554C483.608 206.661 481.711 208.447 479.121 209.897L480.098 211.643ZM488.759 197.078C488.759 194.561 488.273 192.37 487.244 190.554C486.209 188.728 484.66 187.342 482.643 186.393L481.792 188.203C483.469 188.992 484.691 190.106 485.504 191.54C486.322 192.984 486.759 194.813 486.759 197.078H488.759ZM482.685 186.414C478.857 184.387 473.632 182.843 467.06 181.748L466.731 183.72C473.199 184.798 478.188 186.297 481.749 188.182L482.685 186.414ZM467.05 181.746L439.992 177.508L439.683 179.484L466.741 183.722L467.05 181.746ZM439.979 177.506C432.425 176.427 425.42 174.81 418.964 172.657L418.331 174.555C424.914 176.749 432.037 178.392 439.696 179.486L439.979 177.506ZM418.992 172.667C412.564 170.31 407.013 167.211 402.329 163.378L401.062 164.926C405.94 168.917 411.691 172.12 418.303 174.545L418.992 172.667ZM402.329 163.378C397.659 159.557 393.943 154.888 391.18 149.361L389.391 150.255C392.278 156.029 396.169 160.923 401.062 164.926L402.329 163.378ZM391.18 149.361C388.44 143.882 387.047 137.197 387.047 129.27H385.047C385.047 137.425 386.48 144.433 389.391 150.255L391.18 149.361ZM387.047 129.27C387.047 111.964 393.649 98.4692 406.855 88.6711L405.663 87.0649C391.92 97.2615 385.047 111.368 385.047 129.27H387.047ZM406.855 88.6711C420.095 78.8477 438.764 73.872 462.983 73.872V71.872C438.52 71.872 419.373 76.8936 405.663 87.0649L406.855 88.6711ZM462.983 73.872C479.414 73.872 493.299 76.1428 504.669 80.6477L505.406 78.7883C493.738 74.1652 479.587 71.872 462.983 71.872V73.872ZM504.69 80.6557C516.29 84.952 525.482 91.1636 532.308 99.2701L533.838 97.9819C526.755 89.5711 517.257 83.1774 505.385 78.7802L504.69 80.6557ZM532.323 97.965L508.199 125.349L509.7 126.671L533.824 99.287L532.323 97.965ZM509.685 125.333C504.586 119.79 498.063 115.154 490.142 111.414L489.288 113.222C497.015 116.871 503.316 121.364 508.213 126.687L509.685 125.333ZM490.142 111.414C482.153 107.641 472.545 105.776 461.353 105.776V107.776C472.33 107.776 481.63 109.606 489.288 113.222L490.142 111.414ZM461.353 105.776C451.94 105.776 444.713 107.193 439.809 110.158C434.824 113.172 432.317 117.742 432.317 123.728H434.317C434.317 118.412 436.483 114.506 440.844 111.87C445.285 109.184 452.076 107.776 461.353 107.776V105.776ZM432.317 123.728C432.317 129.01 434.299 132.877 438.391 135.044L439.327 133.276C436.03 131.531 434.317 128.443 434.317 123.728H432.317ZM438.434 135.065C442.246 136.859 447.455 138.291 454.017 139.384L454.346 137.412C447.868 136.332 442.862 134.938 439.285 133.255L438.434 135.065ZM454.025 139.386L480.757 143.624L481.07 141.648L454.338 137.41L454.025 139.386ZM480.772 143.626C488.317 144.704 495.311 146.427 501.759 148.791L502.448 146.913C495.855 144.496 488.723 142.742 481.055 141.646L480.772 143.626ZM501.787 148.801C508.205 150.94 513.745 153.927 518.422 157.754L519.689 156.206C514.803 152.209 509.042 149.111 502.42 146.903L501.787 148.801ZM518.439 157.768C523.321 161.589 527.138 166.254 529.897 171.771L531.686 170.877C528.794 165.093 524.786 160.195 519.672 156.192L518.439 157.768ZM529.897 171.771C532.636 177.25 534.029 183.935 534.029 191.862H536.029C536.029 183.707 534.597 176.699 531.686 170.877L529.897 171.771ZM534.029 191.862C534.029 209.162 527.323 222.769 513.893 232.788L515.089 234.392C529.043 223.981 536.029 209.77 536.029 191.862H534.029ZM513.887 232.793C500.652 242.826 481.664 247.912 456.789 247.912V249.912C481.901 249.912 501.381 244.783 515.095 234.387L513.887 232.793ZM641.83 48.748L641.088 49.4189L641.105 49.4374L641.123 49.4551L641.83 48.748ZM641.83 6.694L641.123 5.98689L641.114 5.99596L641.105 6.00525L641.83 6.694ZM687.144 6.694L686.419 7.38274L686.428 7.39204L686.437 7.40111L687.144 6.694ZM687.144 48.748L686.42 48.0583L686.419 48.0592L687.144 48.748ZM587.062 207.51V206.51H586.062V207.51H587.062ZM640.526 207.51V208.51H641.526V207.51H640.526ZM640.526 114.274H641.526V113.274H640.526V114.274ZM587.062 114.274H586.062V115.274H587.062V114.274ZM587.062 76.784V75.784H586.062V76.784H587.062ZM688.774 76.784H689.774V75.784H688.774V76.784ZM688.774 207.51H687.774V208.51H688.774V207.51ZM738.326 207.51H739.326V206.51H738.326V207.51ZM738.326 245V246H739.326V245H738.326ZM587.062 245H586.062V246H587.062V245ZM664.65 54.268C653.861 54.268 646.596 52.0996 642.537 48.0409L641.123 49.4551C645.757 54.0897 653.706 56.268 664.65 56.268V54.268ZM642.572 48.0771C638.613 43.7018 636.636 38.5093 636.636 32.448H634.636C634.636 38.992 636.788 44.6662 641.088 49.4189L642.572 48.0771ZM636.636 32.448V22.994H634.636V32.448H636.636ZM636.636 22.994C636.636 16.7058 638.618 11.5265 642.555 7.38275L641.105 6.00525C636.783 10.5548 634.636 16.2422 634.636 22.994H636.636ZM642.537 7.4011C646.596 3.34235 653.861 1.17399 664.65 1.17399V-0.826012C653.706 -0.826012 645.757 1.35229 641.123 5.98689L642.537 7.4011ZM664.65 1.17399C675.447 1.17399 682.584 3.34565 686.419 7.38274L687.869 6.00525C683.446 1.349 675.586 -0.826012 664.65 -0.826012V1.17399ZM686.437 7.40111C690.584 11.548 692.664 16.7214 692.664 22.994H694.664C694.664 16.2266 692.398 10.5333 687.851 5.98689L686.437 7.40111ZM692.664 22.994V32.448H694.664V22.994H692.664ZM692.664 32.448C692.664 38.4939 690.589 43.6803 686.42 48.0583L687.868 49.4376C692.392 44.6877 694.664 39.0074 694.664 32.448H692.664ZM686.419 48.0592C682.584 52.0963 675.447 54.268 664.65 54.268V56.268C675.586 56.268 683.446 54.093 687.869 49.4367L686.419 48.0592ZM587.062 208.51H640.526V206.51H587.062V208.51ZM641.526 207.51V114.274H639.526V207.51H641.526ZM640.526 113.274H587.062V115.274H640.526V113.274ZM588.062 114.274V76.784H586.062V114.274H588.062ZM587.062 77.784H688.774V75.784H587.062V77.784ZM687.774 76.784V207.51H689.774V76.784H687.774ZM688.774 208.51H738.326V206.51H688.774V208.51ZM737.326 207.51V245H739.326V207.51H737.326ZM738.326 244H587.062V246H738.326V244ZM588.062 245V207.51H586.062V245H588.062ZM811.223 114.274H812.223V113.274H811.223V114.274ZM765.583 114.274H764.583V115.274H765.583V114.274ZM765.583 76.784V75.784H764.583V76.784H765.583ZM815.135 17.452V16.452H814.135V17.452H815.135ZM859.471 17.452H860.471V16.452H859.471V17.452ZM859.471 76.784H858.471V77.784H859.471V76.784ZM924.997 76.784H925.997V75.784H924.997V76.784ZM924.997 114.274V115.274H925.997V114.274H924.997ZM859.471 114.274V113.274H858.471V114.274H859.471ZM859.471 207.51H858.471V208.51H859.471V207.51ZM924.997 207.51H925.997V206.51H924.997V207.51ZM924.997 245V246H925.997V245H924.997ZM862.731 244C845.509 244 832.891 239.482 824.669 230.628L823.204 231.988C831.934 241.391 845.179 246 862.731 246V244ZM824.669 230.628C816.388 221.71 812.223 210.337 812.223 196.426H810.223C810.223 210.769 814.533 222.65 823.204 231.988L824.669 230.628ZM812.223 196.426V114.274H810.223V196.426H812.223ZM811.223 113.274H765.583V115.274H811.223V113.274ZM766.583 114.274V76.784H764.583V114.274H766.583ZM765.583 77.784H795.249V75.784H765.583V77.784ZM795.249 77.784C802.504 77.784 807.929 76.3639 811.251 73.2788L809.89 71.8132C807.127 74.3788 802.337 75.784 795.249 75.784V77.784ZM811.251 73.2788C814.613 70.1569 816.135 64.5708 816.135 56.898H814.135C814.135 64.4385 812.613 69.2844 809.89 71.8132L811.251 73.2788ZM816.135 56.898V17.452H814.135V56.898H816.135ZM815.135 18.452H859.471V16.452H815.135V18.452ZM858.471 17.452V76.784H860.471V17.452H858.471ZM859.471 77.784H924.997V75.784H859.471V77.784ZM923.997 76.784V114.274H925.997V76.784H923.997ZM924.997 113.274H859.471V115.274H924.997V113.274ZM858.471 114.274V207.51H860.471V114.274H858.471ZM859.471 208.51H924.997V206.51H859.471V208.51ZM923.997 207.51V245H925.997V207.51H923.997ZM924.997 244H862.731V246H924.997V244ZM985.505 225.44L986.237 224.759L985.505 225.44ZM969.205 124.706L968.262 124.373L968.258 124.384L969.205 124.706ZM985.505 96.67L984.768 95.9943L984.767 95.9952L985.505 96.67ZM1011.26 79.066L1011.62 79.9973L1011.63 79.9931L1011.26 79.066ZM1079.39 79.066L1079.01 79.9903L1079.02 79.9938L1079.03 79.9972L1079.39 79.066ZM1104.82 96.018L1104.09 96.7034L1104.82 96.018ZM1120.8 123.076L1119.85 123.404L1119.85 123.415L1119.86 123.427L1120.8 123.076ZM1126.66 172.628V173.628H1127.66V172.628H1126.66ZM1011.59 172.628V171.628H1010.59V172.628H1011.59ZM1021.69 201.968L1020.98 202.675L1020.99 202.681L1021 202.687L1021.69 201.968ZM1077.11 206.206L1077.57 207.095L1077.58 207.09L1077.59 207.084L1077.11 206.206ZM1095.69 190.884L1096.43 190.207L1095.65 189.363L1094.92 190.246L1095.69 190.884ZM1121.77 219.246L1122.55 219.876L1123.09 219.205L1122.51 218.569L1121.77 219.246ZM1094.39 240.11L1094.84 241.004L1094.39 240.11ZM1020.71 117.208L1019.99 116.513L1019.99 116.513L1020.71 117.208ZM1011.59 145.57H1010.59V146.57H1011.59V145.57ZM1079.39 145.57V146.57H1080.39V145.57H1079.39ZM1070.27 116.882L1069.53 117.563L1069.54 117.57L1069.55 117.577L1070.27 116.882ZM1049.73 247.912C1021.66 247.912 1000.55 240.144 986.237 224.759L984.773 226.121C999.579 242.032 1021.29 249.912 1049.73 249.912V247.912ZM986.237 224.759C971.89 209.341 964.663 188.309 964.663 161.544H962.663C962.663 188.677 969.998 210.243 984.773 226.121L986.237 224.759ZM964.663 161.544C964.663 147.941 966.499 135.773 970.152 125.028L968.258 124.384C964.523 135.372 962.663 147.763 962.663 161.544H964.663ZM970.148 125.039C974.022 114.064 979.391 104.839 986.243 97.3448L984.767 95.9952C977.71 103.714 972.213 113.18 968.262 124.373L970.148 125.039ZM986.242 97.3457C993.31 89.6355 1001.77 83.8543 1011.62 79.9972L1010.89 78.1348C1000.76 82.1017 992.044 88.0564 984.768 95.9943L986.242 97.3457ZM1011.63 79.9931C1021.71 75.9184 1032.99 73.872 1045.49 73.872V71.872C1032.77 71.872 1021.23 73.955 1010.88 78.1389L1011.63 79.9931ZM1045.49 73.872C1057.98 73.872 1069.15 75.9185 1079.01 79.9903L1079.78 78.1417C1069.64 73.9548 1058.2 71.872 1045.49 71.872V73.872ZM1079.03 79.9972C1088.9 83.8584 1097.25 89.4281 1104.09 96.7034L1105.55 95.3326C1098.49 87.8292 1089.88 82.0975 1079.76 78.1348L1079.03 79.9972ZM1104.09 96.7034C1110.94 103.979 1116.2 112.873 1119.85 123.404L1121.74 122.748C1118 111.981 1112.61 102.835 1105.55 95.3326L1104.09 96.7034ZM1119.86 123.427C1123.72 133.729 1125.66 145.344 1125.66 158.284H1127.66C1127.66 145.144 1125.69 133.286 1121.73 122.725L1119.86 123.427ZM1125.66 158.284V172.628H1127.66V158.284H1125.66ZM1126.66 171.628H1011.59V173.628H1126.66V171.628ZM1010.59 172.628V175.562H1012.59V172.628H1010.59ZM1010.59 175.562C1010.59 186.653 1014.03 195.723 1020.98 202.675L1022.4 201.261C1015.88 194.738 1012.59 186.204 1012.59 175.562H1010.59ZM1021 202.687C1027.98 209.448 1038.16 212.748 1051.36 212.748V210.748C1038.47 210.748 1028.87 207.528 1022.39 201.249L1021 202.687ZM1051.36 212.748C1061.48 212.748 1070.23 210.878 1077.57 207.095L1076.65 205.317C1069.65 208.923 1061.23 210.748 1051.36 210.748V212.748ZM1077.59 207.084C1084.87 203.111 1091.17 197.922 1096.46 191.522L1094.92 190.246C1089.79 196.451 1083.69 201.477 1076.63 205.328L1077.59 207.084ZM1094.96 191.561L1121.04 219.923L1122.51 218.569L1096.43 190.207L1094.96 191.561ZM1121 218.616C1114.59 226.521 1105.58 233.395 1093.94 239.216L1094.84 241.004C1106.67 235.089 1115.92 228.053 1122.55 219.876L1121 218.616ZM1093.94 239.216C1082.39 244.993 1067.67 247.912 1049.73 247.912V249.912C1067.87 249.912 1082.92 246.963 1094.84 241.004L1093.94 239.216ZM1045.82 106.428C1035.16 106.428 1026.51 109.768 1019.99 116.513L1021.43 117.903C1027.52 111.608 1035.61 108.428 1045.82 108.428V106.428ZM1019.99 116.513C1013.69 123.045 1010.59 131.902 1010.59 142.962H1012.59C1012.59 132.289 1015.57 123.976 1021.43 117.903L1019.99 116.513ZM1010.59 142.962V145.57H1012.59V142.962H1010.59ZM1011.59 146.57H1079.39V144.57H1011.59V146.57ZM1080.39 145.57V142.962H1078.39V145.57H1080.39ZM1080.39 142.962C1080.39 131.691 1077.29 122.723 1070.98 116.187L1069.55 117.577C1075.41 123.647 1078.39 132.065 1078.39 142.962H1080.39ZM1071 116.201C1064.9 109.653 1056.46 106.428 1045.82 106.428V108.428C1056.03 108.428 1063.89 111.506 1069.53 117.563L1071 116.201Z" fill="#D6D6D6"/>
</svg>
