<svg width="682" height="927" viewBox="0 0 682 927" fill="none" xmlns="http://www.w3.org/2000/svg">
<path fill-rule="evenodd" clip-rule="evenodd" d="M258.262 453.441L125.771 491.089L324.773 43.334L558.218 -23L396.152 341.647L681.956 261.471L47.9561 926.087L258.262 453.441Z" fill="#EEFF30"/>
<path fill-rule="evenodd" clip-rule="evenodd" d="M235.262 430.441L102.771 468.089L301.773 20.334L535.218 -46L373.152 318.647L658.956 238.471L24.9561 903.087L235.262 430.441Z" fill="#FF1A1A"/>
<mask id="mask0_84_79" style="mask-type:alpha" maskUnits="userSpaceOnUse" x="0" y="-70" width="635" height="950">
<path fill-rule="evenodd" clip-rule="evenodd" d="M211.262 406.441L78.7709 444.089L277.773 -3.666L511.218 -70L349.152 294.647L634.956 214.471L0.956055 879.087L211.262 406.441Z" fill="#161616"/>
</mask>
<g mask="url(#mask0_84_79)">
<circle cx="303" cy="369" r="520" fill="#161616" stroke="white" stroke-width="14"/>
<circle cx="303" cy="369" r="481.726" fill="#161616" stroke="white" stroke-width="14"/>
<circle cx="303" cy="369" r="443.453" fill="#161616" stroke="white" stroke-width="14"/>
<circle cx="303" cy="369" r="405.179" fill="#161616" stroke="white" stroke-width="14"/>
<circle cx="303" cy="369" r="366.905" fill="#161616" stroke="white" stroke-width="14"/>
<circle cx="303" cy="369" r="328.631" fill="#161616" stroke="white" stroke-width="14"/>
<circle cx="303" cy="369" r="290.358" fill="#161616" stroke="white" stroke-width="14"/>
<circle cx="303" cy="369" r="252.084" fill="#161616" stroke="white" stroke-width="14"/>
<circle cx="303" cy="369" r="213.81" fill="#161616" stroke="white" stroke-width="14"/>
<circle cx="303" cy="369" r="175.536" fill="#161616" stroke="white" stroke-width="14"/>
<circle cx="303" cy="369" r="137.263" fill="#161616" stroke="white" stroke-width="14"/>
<circle cx="303" cy="369" r="98.9888" fill="#161616" stroke="white" stroke-width="14"/>
<circle cx="303" cy="369" r="60.7151" fill="#161616" stroke="white" stroke-width="14"/>
<circle cx="303" cy="369" r="22.4413" fill="#161616" stroke="white" stroke-width="14"/>
</g>
</svg>
